<?xml version="1.0" standalone="no"?>
<!DOCTYPE svg PUBLIC "-//W3C//DTD SVG 20010904//EN"
 "http://www.w3.org/TR/2001/REC-SVG-20010904/DTD/svg10.dtd">
<svg version="1.0" xmlns="http://www.w3.org/2000/svg"
 width="579.000000pt" height="579.000000pt" viewBox="0 0 579.000000 579.000000"
 preserveAspectRatio="xMidYMid meet">
<metadata>
Created by potrace 1.16, written by Peter Selinger 2001-2019
</metadata>
<g transform="translate(0.000000,579.000000) scale(0.100000,-0.100000)"
fill="#000000" stroke="none">
<path d="M3395 5194 c-448 -37 -905 -173 -1315 -391 -119 -63 -363 -213 -368
-225 -2 -4 -8 -8 -13 -8 -12 0 -155 -108 -264 -199 -145 -122 -325 -309 -424
-442 -118 -160 -99 -131 -174 -266 -144 -264 -192 -553 -129 -773 24 -81 84
-204 123 -250 26 -31 24 -27 -11 35 -120 212 -138 438 -54 693 105 320 341
624 739 951 164 134 468 325 685 429 613 293 1252 404 1750 302 326 -66 583
-232 709 -455 69 -123 109 -312 97 -460 -26 -308 -170 -612 -452 -955 -32 -38
-28 -36 24 15 124 121 270 324 356 495 158 313 183 648 67 903 -138 306 -447
506 -891 578 -121 20 -353 31 -455 23z"/>
<path d="M3566 4670 c-22 -11 -50 -20 -63 -20 -30 0 -170 -55 -203 -80 -47
-35 -14 -30 90 16 57 24 111 43 119 42 12 -2 -97 -87 -195 -153 -12 -8 -22 -3
-43 20 -15 17 -58 46 -96 65 -65 32 -78 35 -176 38 -101 4 -110 2 -182 -28
-56 -23 -95 -49 -147 -97 -39 -36 -68 -68 -65 -71 2 -3 13 4 22 14 28 31 105
90 142 109 60 30 125 45 203 45 125 0 218 -46 295 -146 79 -102 106 -185 107
-319 l1 -90 -60 -8 c-187 -25 -405 -80 -561 -143 -208 -82 -342 -159 -482
-276 -231 -194 -305 -431 -184 -591 65 -86 184 -131 343 -130 277 1 576 135
747 333 137 160 238 390 257 590 11 120 6 113 83 107 149 -12 241 -47 306
-117 204 -218 -16 -649 -504 -989 -199 -138 -538 -299 -775 -367 -317 -92
-467 -114 -902 -133 -7 -1 -13 -5 -13 -11 0 -17 293 -11 470 10 190 22 360 53
470 85 30 9 69 20 85 24 93 25 386 143 471 189 17 9 51 28 75 41 411 224 702
529 778 814 46 171 8 336 -100 433 -69 61 -216 117 -341 129 -43 3 -80 10 -82
14 -3 4 -10 47 -16 95 -10 81 -51 219 -71 241 -5 5 -9 17 -9 27 0 10 -9 27
-20 38 -11 11 -20 24 -20 29 0 5 30 28 66 51 36 22 86 57 110 76 25 19 51 34
57 34 7 0 24 16 40 34 41 53 36 57 -27 26z m-194 -820 c-7 -112 -72 -317 -135
-424 -171 -292 -482 -464 -822 -454 -101 3 -117 6 -171 33 -81 42 -104 78
-104 167 0 92 36 163 137 269 155 162 401 296 715 388 112 34 305 70 353 68
29 -2 30 -3 27 -47z"/>
<path d="M4890 2089 c-220 -56 -314 -116 -355 -223 -26 -67 -10 -113 62 -183
l55 -54 -24 -27 c-14 -15 -28 -35 -31 -44 -10 -28 -25 -21 -46 20 -58 112
-174 142 -284 72 -150 -95 -147 -333 4 -411 56 -28 96 -20 128 27 48 70 26
174 -42 198 -56 20 -81 -51 -28 -78 30 -16 41 -34 41 -67 0 -28 -40 -24 -83 9
-48 35 -77 95 -77 157 0 43 4 52 40 86 71 67 139 65 208 -8 53 -55 80 -114 95
-210 12 -75 22 -86 50 -55 12 13 17 38 17 88 1 95 14 155 39 175 11 9 49 22
83 28 82 14 135 1 144 -35 4 -13 -8 -109 -26 -212 -44 -256 -46 -272 -29 -272
8 0 20 10 27 21 19 29 90 455 84 502 -6 49 -31 66 -126 82 -42 7 -98 26 -127
42 -59 32 -109 93 -109 133 0 56 96 113 261 156 75 19 110 34 127 51 22 25 25
44 6 49 -5 2 -43 -6 -84 -17z"/>
<path d="M1940 2039 c-52 -10 -194 -79 -230 -112 -113 -102 -127 -197 -44
-285 41 -43 43 -47 29 -67 -8 -11 -22 -36 -31 -55 -48 -107 64 -200 145 -119
30 29 41 72 22 83 -4 3 -19 -6 -31 -19 -28 -30 -38 -30 -67 -6 -26 22 -29 49
-9 77 11 15 26 19 65 18 44 0 56 -5 86 -34 41 -40 46 -84 15 -135 -54 -87
-233 -94 -326 -12 -47 40 -66 89 -66 165 -1 50 4 70 26 102 29 44 33 70 12 70
-20 0 -62 -57 -81 -109 -18 -52 -20 -145 -3 -192 23 -70 63 -114 129 -144 54
-24 71 -27 133 -23 107 7 185 57 232 149 55 110 8 212 -114 248 -114 33 -187
125 -152 191 11 21 91 79 141 103 64 30 169 49 230 42 45 -5 59 -3 72 10 24
23 21 52 -5 59 -31 8 -124 6 -178 -5z"/>
<path d="M971 1863 c-54 -27 -73 -67 -68 -141 3 -35 9 -68 14 -73 15 -15 46
27 44 58 -7 88 -7 87 20 97 33 11 91 1 120 -23 l22 -18 -39 -78 c-36 -73 -42
-80 -85 -94 -101 -35 -159 -103 -159 -187 0 -80 66 -154 138 -154 26 0 43 9
72 38 47 47 63 101 54 184 l-7 61 34 -6 c69 -11 106 -34 127 -79 37 -77 17
-127 -112 -287 -103 -128 -121 -164 -121 -246 0 -51 7 -86 24 -128 24 -60 33
-66 57 -43 19 19 18 41 -6 104 -23 59 -26 118 -8 159 7 15 42 66 78 113 129
166 160 226 160 306 0 35 -27 112 -44 129 -19 18 -86 45 -111 45 -13 0 -35 4
-49 10 l-26 9 35 73 c42 87 44 126 10 158 -34 32 -125 39 -174 13z m64 -350
c3 -10 9 -48 12 -86 5 -56 3 -71 -12 -87 -26 -29 -50 -25 -95 16 -33 30 -40
43 -40 74 0 43 17 65 65 86 41 18 62 17 70 -3z"/>
<path d="M3820 1851 c-16 -31 -12 -43 26 -86 76 -85 134 -255 115 -338 -18
-77 -68 -107 -176 -107 -88 0 -96 8 -66 68 73 144 4 281 -144 285 -100 2 -195
-86 -195 -181 0 -75 65 -149 120 -137 36 8 88 67 96 109 4 26 1 43 -11 62 -20
31 -44 28 -65 -9 -14 -26 -14 -29 3 -41 25 -19 22 -46 -6 -46 -36 0 -77 49
-77 92 0 69 93 103 173 62 38 -20 49 -31 65 -67 26 -59 15 -100 -46 -176 l-36
-44 21 -17 c30 -24 134 -44 185 -36 133 21 206 101 216 236 8 119 -37 251
-118 343 -45 51 -64 57 -80 28z"/>
<path d="M3034 1801 c-113 -28 -232 -179 -257 -327 -21 -120 29 -234 102 -234
74 0 161 83 161 153 0 36 -45 70 -84 63 -37 -8 -66 -33 -66 -57 0 -15 7 -18
35 -17 61 2 74 -39 20 -64 -60 -27 -115 39 -115 141 0 180 172 327 295 251 62
-38 94 -163 75 -286 -14 -85 -40 -137 -102 -196 -49 -47 -54 -68 -18 -68 30 0
115 102 146 177 25 62 28 79 28 193 1 121 0 127 -29 180 -43 77 -112 110 -191
91z"/>
<path d="M2168 1693 c-68 -78 -101 -279 -59 -361 24 -47 101 -92 159 -92 43 0
56 -10 66 -52 8 -34 50 -85 87 -104 16 -8 29 -19 29 -24 0 -13 -65 -106 -104
-149 -100 -109 -262 -73 -363 81 -14 21 -29 38 -33 38 -4 0 -15 -12 -25 -26
-16 -25 -16 -30 -2 -59 53 -112 180 -183 295 -164 28 4 61 13 74 19 37 20 88
71 124 127 43 67 92 114 157 148 66 35 87 54 87 76 0 28 -14 30 -56 9 -72 -37
-151 -21 -194 40 -22 31 -21 60 2 60 25 0 138 59 172 91 47 42 70 105 63 168
-7 60 -23 87 -60 102 -23 10 -35 8 -69 -7 -84 -38 -150 -120 -183 -228 l-22
-71 -34 3 c-68 7 -126 56 -136 115 -7 45 23 184 48 219 34 47 14 82 -23 41z
m405 -161 c26 -29 32 -78 13 -107 -33 -50 -185 -120 -209 -96 -6 6 -2 33 9 66
13 42 31 71 66 106 54 54 92 63 121 31z"/>
</g>
</svg>
